<?xml version="1.0" encoding="UTF-8"?>
<svg id="Layer_2" data-name="Layer 2" xmlns="http://www.w3.org/2000/svg" xmlns:xlink="http://www.w3.org/1999/xlink" viewBox="0 0 768.99 180.86">
  <defs>
    <style>
      .cls-1 {
        stroke: #000;
        stroke-miterlimit: 10;
      }

      .cls-1, .cls-2 {
        stroke-width: 3px;
      }

      .cls-3 {
        fill: url(#linear-gradient-4);
      }

      .cls-4 {
        fill: url(#linear-gradient-3);
      }

      .cls-5 {
        fill: url(#linear-gradient-5);
      }

      .cls-6 {
        fill: url(#linear-gradient-6);
      }

      .cls-2 {
        fill: url(#linear-gradient);
        stroke: url(#linear-gradient-2);
        stroke-linecap: round;
        stroke-linejoin: round;
      }
    </style>
    <linearGradient id="linear-gradient" x1="90.43" y1="179.36" x2="90.43" y2="1.5" gradientUnits="userSpaceOnUse">
      <stop offset="0" stop-color="#b30190"/>
      <stop offset="1" stop-color="#f77d02"/>
    </linearGradient>
    <linearGradient id="linear-gradient-2" x1="90.43" y1="180.86" x2="90.43" y2="0" gradientUnits="userSpaceOnUse">
      <stop offset="0" stop-color="#b30190"/>
      <stop offset="1" stop-color="#f77d02"/>
    </linearGradient>
    <linearGradient id="linear-gradient-3" x1="25.97" y1="108.16" x2="25.97" y2="72.73" gradientUnits="userSpaceOnUse">
      <stop offset="0" stop-color="#cd3159"/>
      <stop offset="1" stop-color="#db493d"/>
    </linearGradient>
    <linearGradient id="linear-gradient-4" x1="154.94" y1="108.06" x2="154.94" y2="72.64" gradientUnits="userSpaceOnUse">
      <stop offset="0" stop-color="#cd3159"/>
      <stop offset="1" stop-color="#db493d"/>
    </linearGradient>
    <linearGradient id="linear-gradient-5" x1="90.5" y1="137.17" x2="90.5" y2="172.6" gradientUnits="userSpaceOnUse">
      <stop offset="0" stop-color="#c31e6f"/>
      <stop offset="1" stop-color="#b6068a"/>
    </linearGradient>
    <linearGradient id="linear-gradient-6" x1="90.41" y1="8.2" x2="90.41" y2="43.63" gradientUnits="userSpaceOnUse">
      <stop offset="0" stop-color="#f67c04"/>
      <stop offset="1" stop-color="#e75f24"/>
    </linearGradient>
  </defs>
  <g id="Skyline_Drones" data-name="Skyline Drones">
    <g id="Color">
      <g id="Logo_type" data-name="Logo type">
        <g id="DRONES">
          <g>
            <path class="cls-1" d="M341.65,123.36h15.29c11.86,0,19.83,8.03,19.83,20.51s-7.76,21.4-20.06,21.4h-15.06v-41.91ZM347.87,160.06h8.41c9.52,0,14-6.86,14-16.09,0-8-4.1-15.4-13.97-15.4h-8.44v31.49Z"/>
            <path class="cls-1" d="M408.39,147.12v18.14h-6.14v-41.91h16.76c8.71,0,13.36,4.74,13.36,11.27,0,5.48-3.12,8.73-6.95,9.87,3.17.89,6.17,3.37,6.17,10.69v1.85c0,2.87-.1,6.45.57,8.24h-6.01c-.76-1.81-.74-5.05-.74-9.08v-.84c0-5.71-1.59-8.22-8.96-8.22h-8.08ZM408.39,141.97h8.83c6.13,0,8.78-2.31,8.78-6.79s-2.78-6.67-8.23-6.67h-9.38v13.46Z"/>
            <path class="cls-1" d="M495.19,144.09c0,11.55-6.57,21.78-19.85,21.78-12.49,0-19.38-9.54-19.38-21.56s7.14-21.56,19.88-21.56c11.89,0,19.34,8.81,19.34,21.34ZM462.45,144.13c0,8.89,4.44,16.5,13.15,16.5,9.41,0,13.1-7.78,13.1-16.45s-4.17-16.19-13.11-16.19-13.13,7.35-13.13,16.14Z"/>
            <path class="cls-1" d="M520.66,165.27v-41.91h8.09c5.86,9.73,18.3,29.84,20.57,34.4h.09c-.42-5.19-.38-11.93-.38-18.78v-15.62h5.81v41.91h-7.62c-5.34-8.93-18.43-30.8-20.95-35.53h-.09c.3,4.56.32,11.95.32,19.51v16.02h-5.84Z"/>
            <path class="cls-1" d="M609.65,145.96h-20.69v14.04h21.67v5.27h-27.75v-41.91h27.75v5.27h-21.67v12.07h20.69v5.27Z"/>
            <path class="cls-1" d="M639.76,153.48c1.1,4.87,4.46,7.42,10.3,7.42,6.22,0,8.71-2.85,8.71-6.64,0-4.05-2.06-6.24-10.23-8.21-10.17-2.45-13.48-5.98-13.48-11.83,0-6.43,4.76-11.48,14.22-11.48,10.2,0,14.37,5.81,14.94,11.43h-6.31c-.69-3.51-2.85-6.52-8.83-6.52-4.83,0-7.58,2.15-7.58,5.95s2.25,5.22,9.49,6.96c12,2.9,14.21,7.53,14.21,13.01,0,6.93-5.16,12.22-15.56,12.22s-15.3-5.66-16.19-12.32h6.31Z"/>
          </g>
        </g>
        <g id="SKYLINE">
          <path d="M253.33,78.34c1.98,8.75,8.15,12.92,18.41,12.92s14.94-4.49,14.94-11.07c0-7.18-3.97-10.64-18.76-14.14-21.2-5.03-27.1-12.6-27.1-23.79,0-13.51,10.06-23.25,29.02-23.25,20.92,0,29.34,11.51,30.48,23.04h-15.47c-1.06-5.79-4.45-11.43-15.45-11.43-8.12,0-12.88,3.48-12.88,9.96s3.86,8.91,17.44,12.11c23.59,5.62,28.43,14.54,28.43,25.7,0,14.32-10.76,24.58-31.79,24.58s-30.87-10.55-32.74-24.64h15.47Z"/>
          <path d="M325.91,20.2h15.15v37.69c5.62-6.29,23.77-25.43,34.97-37.69h18.52l-33.6,34.11,34.98,47.55h-18.43l-27.21-37.63-9.24,8.65v28.97h-15.15V20.2Z"/>
          <path d="M430.09,101.87v-29.24c0-.87-.15-1.7-.64-2.47l-28.36-49.96h17.37c6.69,12.65,16.13,30.63,20.09,38.92,3.54-8.04,13.6-26.62,20.3-38.92h16.11l-28.92,49.86c-.32.56-.6.94-.6,2.43v29.38h-15.35Z"/>
          <path d="M491.83,20.2h15.32v68.98h39.49v12.69s-54.81,0-54.81,0V20.2Z"/>
          <path d="M584.26,20.2v81.67h-15.32V20.2h15.32Z"/>
          <path d="M614.17,101.87V20.2h19.3c10.72,18.6,31.84,54.26,35.88,63.15h.2c-.87-9.19-.84-22.93-.84-36.31v-26.84h14.03v81.67h-18.26c-9.47-16.56-32.3-56.51-36.72-65.85h-.2c.59,7.88.72,23.65.72,38.32v27.53h-14.11Z"/>
          <path d="M767.15,65.63h-39.59v23.54h41.43v12.69h-56.34V20.2h56.29v12.69h-41.38v20.05h39.59v12.69Z"/>
        </g>
      </g>
      <g id="Logo_Mark" data-name="Logo Mark">
        <path id="Body" class="cls-2" d="M154.95,130.54c-.61,0-1.22.03-1.82.07h0c-.12,0-.25.02-.39.03-.12.01-.24.02-.37.03-4.28.35-17.05.63-27.66-9.98-11.05-11.05-10.4-23.37-10.01-27.56.02-.14.03-.28.04-.42.01-.11.02-.21.03-.31h0c.02-.24.04-.48.05-.73.02-.42.03-.84.03-1.26,0-.66-.03-1.31-.08-1.96h0c0-.07-.02-.16-.03-.25-.02-.19-.04-.39-.06-.58-.42-4.29-1.16-16.51,9.9-27.57,10.35-10.35,23.55-10.2,27.82-9.87.07,0,.14.01.21.02.18.02.35.03.5.05h0c.6.04,1.21.07,1.82.07,13.48,0,24.41-10.93,24.41-24.41S168.42,1.5,154.94,1.5s-24.41,10.93-24.41,24.41c0,.61.03,1.22.07,1.82h0c.01.11.02.24.04.38.01.12.02.25.03.37.35,4.28.63,17.05-9.98,27.66-11.05,11.05-23.37,10.4-27.56,10.01-.14-.02-.28-.03-.42-.04-.11-.01-.21-.02-.31-.03h0c-.25-.01-.49-.03-.74-.05-.42-.02-.84-.03-1.26-.03-.66,0-1.31.03-1.96.08h0c-.08,0-.17,0-.26.02-.19.02-.39.04-.58.06-4.29.42-16.51,1.16-27.57-9.9-10.35-10.35-10.2-23.55-9.87-27.82,0-.07.01-.14.02-.21.02-.18.03-.35.05-.5h0c.04-.59.07-1.2.07-1.81,0-13.48-10.93-24.41-24.41-24.41S1.5,12.44,1.5,25.92s10.93,24.41,24.41,24.41c.61,0,1.22-.03,1.82-.07h0c.12,0,.25-.02.39-.03.12-.01.25-.02.37-.03,4.28-.35,17.05-.63,27.66,9.98,11.05,11.05,10.4,23.37,10.01,27.56-.02.14-.03.28-.04.42-.01.11-.02.21-.03.31h0c-.02.24-.04.48-.05.73-.02.42-.03.84-.03,1.26,0,.66.03,1.31.08,1.96h0c0,.07.02.16.03.25.02.19.04.39.06.58.42,4.29,1.16,16.51-9.9,27.57-10.35,10.35-23.55,10.2-27.82,9.87-.07,0-.14-.01-.21-.02-.18-.02-.35-.03-.5-.05h0c-.6-.04-1.21-.07-1.82-.07-13.48,0-24.41,10.93-24.41,24.41s10.93,24.41,24.41,24.41,24.41-10.93,24.41-24.41c0-.61-.03-1.22-.07-1.82h0c-.01-.11-.02-.24-.04-.39-.01-.12-.02-.24-.03-.37-.35-4.28-.63-17.05,9.98-27.66s23.36-10.4,27.56-10.01c.14.02.28.03.43.04.11.01.21.02.31.03h0c.25.01.49.03.74.05.42.02.84.03,1.26.03.66,0,1.31-.03,1.96-.08h0c.08,0,.17,0,.26-.02.19-.02.39-.04.58-.06,4.29-.42,16.51-1.16,27.57,9.9,10.35,10.35,10.2,23.55,9.87,27.82,0,.07-.01.14-.02.21-.02.18-.03.35-.05.5h0c-.04.59-.07,1.2-.07,1.81,0,13.48,10.93,24.41,24.41,24.41s24.41-10.93,24.41-24.41-10.93-24.41-24.41-24.41Z"/>
        <circle id="Left" class="cls-4" cx="25.97" cy="90.44" r="17.71"/>
        <circle id="Right" class="cls-3" cx="154.94" cy="90.35" r="17.71"/>
        <circle id="Down" class="cls-5" cx="90.5" cy="154.88" r="17.71"/>
        <circle id="Up" class="cls-6" cx="90.41" cy="25.91" r="17.71"/>
      </g>
    </g>
  </g>
</svg>